<mxfile host="app.diagrams.net" modified="2021-01-07T01:20:40.569Z" agent="5.0 (Windows)" etag="SwPjZD3kmtP_3Kgc64gC" version="14.1.8" type="github">
  <diagram id="mMyYPGWnrGsYQnBcnDvI" name="Page-1">
    <mxGraphModel dx="1422" dy="763" grid="1" gridSize="10" guides="1" tooltips="1" connect="1" arrows="1" fold="1" page="1" pageScale="1" pageWidth="827" pageHeight="1169" math="0" shadow="0">
      <root>
        <mxCell id="0" />
        <mxCell id="1" parent="0" />
        <mxCell id="AUzd76Bflk5-y0UfW6Tw-23" value="" style="rounded=0;whiteSpace=wrap;html=1;" vertex="1" parent="1">
          <mxGeometry width="480" height="270" as="geometry" />
        </mxCell>
        <mxCell id="AUzd76Bflk5-y0UfW6Tw-25" value="cartoon" style="whiteSpace=wrap;html=1;aspect=fixed;" vertex="1" parent="1">
          <mxGeometry x="148" y="49" width="32" height="32" as="geometry" />
        </mxCell>
        <mxCell id="AUzd76Bflk5-y0UfW6Tw-27" value="exit" style="whiteSpace=wrap;html=1;aspect=fixed;" vertex="1" parent="1">
          <mxGeometry x="4" y="4" width="32" height="32" as="geometry" />
        </mxCell>
        <mxCell id="AUzd76Bflk5-y0UfW6Tw-28" value="warm" style="whiteSpace=wrap;html=1;aspect=fixed;" vertex="1" parent="1">
          <mxGeometry x="148" y="118" width="32" height="32" as="geometry" />
        </mxCell>
        <mxCell id="AUzd76Bflk5-y0UfW6Tw-33" value="8" style="text;html=1;strokeColor=none;fillColor=none;align=center;verticalAlign=middle;whiteSpace=wrap;rounded=0;" vertex="1" parent="1">
          <mxGeometry y="40" width="40" height="16" as="geometry" />
        </mxCell>
        <mxCell id="AUzd76Bflk5-y0UfW6Tw-60" value="mononoke" style="whiteSpace=wrap;html=1;aspect=fixed;" vertex="1" parent="1">
          <mxGeometry x="148" y="190" width="32" height="32" as="geometry" />
        </mxCell>
        <mxCell id="AUzd76Bflk5-y0UfW6Tw-61" value="pencil" style="whiteSpace=wrap;html=1;aspect=fixed;" vertex="1" parent="1">
          <mxGeometry x="220" y="50" width="32" height="32" as="geometry" />
        </mxCell>
        <mxCell id="AUzd76Bflk5-y0UfW6Tw-62" value="color_pencil" style="whiteSpace=wrap;html=1;aspect=fixed;" vertex="1" parent="1">
          <mxGeometry x="290" y="50" width="32" height="32" as="geometry" />
        </mxCell>
        <mxCell id="AUzd76Bflk5-y0UfW6Tw-63" value="wave" style="whiteSpace=wrap;html=1;aspect=fixed;" vertex="1" parent="1">
          <mxGeometry x="220" y="120" width="32" height="32" as="geometry" />
        </mxCell>
        <mxCell id="AUzd76Bflk5-y0UfW6Tw-64" value="lavender" style="whiteSpace=wrap;html=1;aspect=fixed;" vertex="1" parent="1">
          <mxGeometry x="290" y="120" width="32" height="32" as="geometry" />
        </mxCell>
        <mxCell id="AUzd76Bflk5-y0UfW6Tw-65" value="scream" style="whiteSpace=wrap;html=1;aspect=fixed;" vertex="1" parent="1">
          <mxGeometry x="220" y="190" width="32" height="32" as="geometry" />
        </mxCell>
        <mxCell id="AUzd76Bflk5-y0UfW6Tw-66" value="gothic" style="whiteSpace=wrap;html=1;aspect=fixed;" vertex="1" parent="1">
          <mxGeometry x="290" y="190" width="32" height="32" as="geometry" />
        </mxCell>
        <mxCell id="AUzd76Bflk5-y0UfW6Tw-70" value="home" style="whiteSpace=wrap;html=1;aspect=fixed;" vertex="1" parent="1">
          <mxGeometry x="444" y="4" width="32" height="32" as="geometry" />
        </mxCell>
        <mxCell id="AUzd76Bflk5-y0UfW6Tw-71" value="0" style="text;html=1;strokeColor=none;fillColor=none;align=center;verticalAlign=middle;whiteSpace=wrap;rounded=0;" vertex="1" parent="1">
          <mxGeometry x="440" y="36" width="40" height="20" as="geometry" />
        </mxCell>
      </root>
    </mxGraphModel>
  </diagram>
</mxfile>
